<?xml version="1.0" encoding="utf-8"?>
<!-- Generator: Adobe Illustrator 26.0.2, SVG Export Plug-In . SVG Version: 6.00 Build 0)  -->
<svg version="1.1" id="Layer_1" xmlns="http://www.w3.org/2000/svg" xmlns:xlink="http://www.w3.org/1999/xlink" x="0px" y="0px"
	 viewBox="0 0 234.378 206.6457" style="enable-background:new 0 0 234.378 206.6457;" xml:space="preserve">
<style type="text/css">
	.st0{opacity:0.25;fill:none;stroke:#920000;stroke-width:42.5197;stroke-linecap:round;stroke-miterlimit:10;}
	.st1{opacity:0.25;fill:none;stroke:#000000;stroke-width:42.5197;stroke-linecap:round;stroke-miterlimit:10;}
</style>
<path id="_x2D_20_x25__00000114033047269569901740000007519384336211464607_" class="st0" d="M43.2366,127.3113
	c54.384,0.0889,96.7949,13.2871,126.6532,57.8855"/>
<path id="_x30__x25_" class="st1" d="M43.2366,127.3113c54.384,0.0889,108.1335,6.0245,150.0863,40.8777"/>
<path id="_x32_5_x25_" class="st1" d="M43.2366,127.3113c54.384,0.0889,118.1634-2.0917,164.6516,7.3571"/>
<path id="_x35_0_x25_" class="st1" d="M43.2366,127.3113c54.384,0.0889,124.1716-12.8178,162.1808-30.5554"/>
<path id="_x37_5_x25_" class="st1" d="M43.2366,127.3113c54.384,0.0889,117.9895-39.6608,146.4957-70.4294"/>
<path id="_x31_00_x25_" class="st1" d="M43.2366,127.3113c54.384,0.0889,104.796-63.0417,114.3715-103.8782"/>
<path id="_x31_20_x25_" class="st0" d="M43.2366,127.3113c54.384,0.0889,81.1733-77.4033,86.5983-118.9951"/>
<ellipse cx="46.5354" cy="156.3307" rx="46.5354" ry="50.315"/>
</svg>
