<?xml version="1.0" encoding="utf-8"?>
<!-- Generator: Adobe Illustrator 26.0.2, SVG Export Plug-In . SVG Version: 6.00 Build 0)  -->
<svg version="1.1" id="Layer_1" xmlns="http://www.w3.org/2000/svg" xmlns:xlink="http://www.w3.org/1999/xlink" x="0px" y="0px"
	 viewBox="0 0 234.4 206.6" style="enable-background:new 0 0 234.4 206.6;" xml:space="preserve">
<style type="text/css">
	
		.st0{opacity:0.25;fill:none;stroke:#920000;stroke-width:42.5197;stroke-linecap:round;stroke-miterlimit:10;enable-background:new    ;}
	
		.st1{opacity:0.25;fill:none;stroke:#000000;stroke-width:42.5197;stroke-linecap:round;stroke-miterlimit:10;enable-background:new    ;}
	.st2{opacity:0.5;}
</style>
<path id="_x2D_20_x25__00000114033047269569901740000007519384336211464607_" class="st0" d="M43.2,127.3
	c54.4,0.1,96.8,13.3,126.7,57.9"/>
<path id="_x30__x25_" class="st1" d="M43.2,127.3c54.4,0.1,108.1,6,150.1,40.9"/>
<path id="_x32_5_x25_" class="st1" d="M43.2,127.3c54.4,0.1,118.2-2.1,164.7,7.4"/>
<path id="_x35_0_x25_" class="st1" d="M43.2,127.3c54.4,0.1,124.2-12.8,162.2-30.6"/>
<path id="_x37_5_x25_" class="st1" d="M43.2,127.3c54.4,0.1,118-39.7,146.5-70.4"/>
<path id="_x31_00_x25_" class="st1" d="M43.2,127.3c54.4,0.1,104.8-63,114.4-103.9"/>
<path id="_x31_20_x25_" class="st0" d="M43.2,127.3c54.4,0.1,81.2-77.4,86.6-119"/>
<ellipse class="st2" cx="46.5" cy="156.3" rx="46.5" ry="50.3"/>
<path d="M86.7,131c2.8,6.6,4.4,13.9,4.4,21.6c0,28.7-21.5,51.9-48,51.9c-7.1,0-13.9-1.7-20-4.7c6.9,4.3,14.9,6.9,23.4,6.9
	c25.7,0,46.5-22.5,46.5-50.3C93.1,147.1,90.8,138.4,86.7,131z"/>
</svg>
